<svg width="22" height="22" viewBox="0 0 22 22" fill="none" xmlns="http://www.w3.org/2000/svg">
<path d="M11.317 2.25952C10.6375 2.26658 9.99294 2.56133 9.54325 3.07074C9.08428 3.59727 8.8313 4.27235 8.8313 4.97097C8.8313 5.66959 9.08428 6.34467 9.54325 6.8712C9.9887 7.38626 10.6361 7.68221 11.317 7.68221C11.9979 7.68221 12.6453 7.38625 13.0908 6.8712C13.5497 6.34467 13.8027 5.66959 13.8027 4.97097C13.8027 4.27235 13.5497 3.59727 13.0908 3.07074C12.6411 2.56133 11.9965 2.2666 11.317 2.25952ZM12.4198 6.26575C12.1458 6.59097 11.7423 6.77859 11.317 6.77859C10.8917 6.77859 10.4882 6.59097 10.2142 6.26575C9.90497 5.90523 9.7351 5.44586 9.7351 4.97097C9.7351 4.49608 9.90497 4.03668 10.2142 3.67619C10.4882 3.35097 10.8917 3.16335 11.317 3.16335C11.7423 3.16335 12.1458 3.35097 12.4198 3.67619C12.729 4.03671 12.8989 4.49608 12.8989 4.97097C12.8989 5.44586 12.729 5.90526 12.4198 6.26575Z" fill="white"/>
<path d="M2.73078 9.94198H19.4173C19.5371 9.94198 19.6521 9.89437 19.7369 9.80963C19.8216 9.7249 19.8692 9.60991 19.8692 9.49007V0.451908C19.8692 0.332072 19.8216 0.217076 19.7369 0.132345C19.6521 0.047613 19.5371 0 19.4173 0H2.73078C2.48122 0 2.27887 0.202352 2.27887 0.451908V9.49007C2.27887 9.60991 2.32648 9.7249 2.41121 9.80963C2.49595 9.89437 2.61094 9.94198 2.73078 9.94198ZM18.9654 5.9765C18.1885 6.07535 17.4666 6.42982 16.9136 6.98423C16.3604 7.5384 16.0076 8.26109 15.9105 9.03821H6.23505C6.13781 8.26171 5.78496 7.53943 5.23239 6.98526C4.67982 6.43109 3.95878 6.07618 3.18248 5.97655V4.01078C3.96668 3.91011 4.69418 3.54918 5.24896 2.9859C5.80355 2.42264 6.15319 1.68946 6.24197 0.903919H15.9035C15.9923 1.68993 16.3423 2.42326 16.8973 2.98652C17.4525 3.54978 18.1806 3.91053 18.9652 4.01078L18.9654 5.9765ZM3.18269 6.8894C3.71831 6.98099 4.21221 7.23701 4.59569 7.62217C4.979 8.00729 5.23301 8.50217 5.32235 9.03821H3.18263L3.18269 6.8894ZM16.8236 9.03816C16.9142 8.50212 17.1688 8.00766 17.5525 7.62273C17.9362 7.23781 18.4301 6.98159 18.9657 6.8894V9.03816H16.8236ZM18.9657 3.09777C18.4223 3.00456 17.9221 2.74229 17.5364 2.34848C17.1506 1.95447 16.8988 1.4491 16.8169 0.903765H18.9657L18.9657 3.09777ZM5.32948 0.903816C5.24838 1.44895 4.99721 1.95472 4.6117 2.34873C4.22637 2.74274 3.72622 3.0048 3.18294 3.09782V0.903868L5.32948 0.903816Z" fill="white"/>
<path d="M21.1211 12.7008C21.041 12.5069 20.8378 12.3938 20.6306 12.4274C19.9086 12.5465 19.1934 12.7048 18.4887 12.9019L18.3553 12.8071C17.8877 12.4726 17.0178 11.8513 15.0768 11.5961C13.9313 11.4448 13.2171 11.7113 12.5235 11.9689V11.9687C11.7827 12.2987 10.9699 12.4333 10.1623 12.3597C8.70039 12.2376 7.33563 12.2536 6.69831 13.7854C6.59441 14.0283 6.55104 14.2926 6.57182 14.5558C5.34723 13.9841 4.02538 13.3764 3.49884 13.1844C2.73969 12.9041 1.32524 12.3867 0.43496 13.4103C0.0958271 13.7827 -0.0568926 14.2885 0.0191622 14.7864C0.132139 15.4801 0.663145 16.1422 1.4788 16.6324C2.95879 17.5023 7.22914 19.7958 8.95568 20.4984C10.4062 21.0972 11.9926 21.3005 15.411 20.4623C18.3867 19.7324 18.9946 21.1018 19.0263 21.1402C19.0717 21.2618 19.1671 21.3582 19.2885 21.4046C19.3396 21.4242 19.394 21.4343 19.4489 21.4339C19.5222 21.4339 19.5942 21.4161 19.6589 21.3821C21.1321 20.6047 21.5614 17.3601 21.6564 16.384V16.3838C21.7458 15.132 21.5632 13.8756 21.121 12.7008L21.1211 12.7008ZM20.7505 16.3161C20.5449 18.4106 20.0365 19.7597 19.5438 20.3403C19.1688 19.9065 18.4141 19.3574 16.9884 19.3574C16.3849 19.3606 15.7842 19.4365 15.1989 19.5833C12.0039 20.3673 10.6189 20.2069 9.30137 19.6624C7.67006 18.9846 3.42657 16.725 1.93966 15.8551C1.36571 15.5162 0.981562 15.0643 0.913801 14.644C0.877084 14.4138 0.948703 14.1794 1.10808 14.0091C1.46053 13.6069 2.02321 13.6159 3.18464 14.0408C3.80822 14.2668 5.70623 15.1706 7.09367 15.8101L7.75113 16.1196C8.01582 16.2677 8.29239 16.3932 8.5783 16.4946C9.87308 17.046 11.0795 17.073 12.1641 16.5737C12.3913 16.4696 12.491 16.2009 12.3867 15.9737C12.2826 15.7468 12.0138 15.6471 11.7869 15.7512C10.9305 16.1466 9.99278 16.115 8.92633 15.6586C8.79983 15.6043 8.52405 15.4778 8.17162 15.3128C7.89704 15.173 7.66988 14.9553 7.51854 14.687C7.44168 14.5103 7.44672 14.3085 7.53206 14.1356C7.87099 13.32 8.43588 13.1233 10.0854 13.2613C11.0275 13.3422 11.9749 13.1868 12.842 12.8094C13.4838 12.5699 14.0374 12.3574 14.9591 12.4839C16.6764 12.7099 17.4264 13.2477 17.8287 13.5346C18.0817 13.7154 18.3214 13.8871 18.6308 13.7945C19.2792 13.6024 19.9865 13.4578 20.4001 13.3787C20.7046 14.3224 20.8236 15.3161 20.7504 16.3048L20.7505 16.3161Z" fill="white"/>
</svg>
