<svg width="20" height="21" viewBox="0 0 20 21" fill="none" xmlns="http://www.w3.org/2000/svg">
<path d="M15 0.355469H5C2.23858 0.355469 0 2.59404 0 5.35547V15.3555C0 18.1169 2.23858 20.3555 5 20.3555H15C17.7614 20.3555 20 18.1169 20 15.3555V5.35547C20 2.59404 17.7614 0.355469 15 0.355469Z" fill="white"/>
<path d="M14.0002 9.72528C14.1236 10.5575 13.9815 11.4075 13.594 12.1543C13.2065 12.9011 12.5933 13.5067 11.8418 13.885C11.0903 14.2632 10.2386 14.3949 9.40798 14.2612C8.57732 14.1275 7.80996 13.7354 7.21503 13.1404C6.62011 12.5455 6.22793 11.7782 6.09426 10.9475C5.9606 10.1168 6.09226 9.26518 6.47052 8.51366C6.84878 7.76214 7.45438 7.14902 8.20118 6.76152C8.94798 6.37402 9.79795 6.23187 10.6302 6.35528C11.4791 6.48117 12.265 6.87675 12.8719 7.48359C13.4787 8.09043 13.8743 8.87636 14.0002 9.72528Z" fill="white" stroke="black" stroke-width="2" stroke-linecap="round" stroke-linejoin="round"/>
<path d="M15.5 4.85547H15.51" stroke="black" stroke-width="2" stroke-linecap="round" stroke-linejoin="round"/>
</svg>
