<svg width="22" height="24" viewBox="0 0 22 24" fill="none" xmlns="http://www.w3.org/2000/svg">
<path d="M11.3714 17.3523L15.43 15.0073C15.5694 14.927 15.6553 14.7782 15.6555 14.6174V9.93176C15.6553 9.7709 15.5694 9.62213 15.43 9.5418L11.3714 7.19678C11.2318 7.11605 11.0599 7.11605 10.9204 7.19678L6.86171 9.5418C6.7224 9.62213 6.63643 9.7709 6.63623 9.93176V14.6174C6.63643 14.7782 6.7224 14.927 6.86171 15.0073L10.9204 17.3523C11.0605 17.4307 11.2312 17.4307 11.3714 17.3523ZM11.5968 16.1798V12.5339L14.7536 10.7119V14.358L11.5968 16.1798ZM11.1459 8.10782L14.3026 9.93204L11.1459 11.754L7.98913 9.93204L11.1459 8.10782ZM7.53816 10.7121L10.6949 12.5341V16.1801L7.53816 14.3583V10.7121Z" fill="white"/>
<path d="M20.165 12.2748C20.165 9.88269 19.2147 7.58859 17.5232 5.89739C15.8319 4.20589 13.5378 3.25562 11.1458 3.25562C8.75377 3.25562 6.45956 4.20589 4.76837 5.89739C3.07686 7.58869 2.12659 9.88279 2.12659 12.2748C2.12659 14.6668 3.07686 16.961 4.76837 18.6522C6.45967 20.3437 8.75377 21.294 11.1458 21.294C12.729 21.294 14.2844 20.8773 15.6554 20.0857C17.0265 19.2941 18.1651 18.1554 18.9568 16.7844C19.7483 15.4133 20.1651 13.8579 20.1651 12.2747L20.165 12.2748ZM3.02831 12.2748C3.02831 10.1219 3.88355 8.05729 5.40575 6.53493C6.92815 5.01273 8.99275 4.15749 11.1456 4.15749C13.2985 4.15749 15.3632 5.01273 16.8855 6.53493C18.4077 8.05734 19.263 10.1219 19.263 12.2748C19.263 14.4277 18.4077 16.4923 16.8855 18.0147C15.3631 19.5369 13.2985 20.3921 11.1456 20.3921C8.99275 20.3921 6.9281 19.5369 5.40575 18.0147C3.88355 16.4923 3.02831 14.4277 3.02831 12.2748Z" fill="white"/>
<path d="M21.6081 16.2569C21.3979 16.2142 21.1867 16.3255 21.1029 16.523L21.0713 16.5997C20.2292 18.5316 18.8414 20.1756 17.0782 21.33C15.315 22.4844 13.2531 23.0988 11.1456 23.0981C10.8966 23.0981 10.6946 23.3 10.6946 23.549C10.6946 23.7981 10.8966 24 11.1456 24C13.127 24.0004 15.0763 23.4987 16.8113 22.5418C18.5463 21.5847 20.0105 20.2036 21.067 18.5276V20.8432C21.067 21.0923 21.269 21.2942 21.518 21.2942C21.767 21.2942 21.969 21.0923 21.969 20.8432V16.6988C21.969 16.4846 21.8182 16.2998 21.6082 16.2569L21.6081 16.2569Z" fill="white"/>
<path d="M11.1454 1.45174C11.3945 1.45174 11.5964 1.24981 11.5964 1.00077C11.5964 0.751735 11.3945 0.549805 11.1454 0.549805C9.16421 0.549201 7.21517 1.0505 5.48027 2.00717C3.74547 2.96368 2.28125 4.34435 1.22429 6.01994V3.70651C1.22429 3.45747 1.02236 3.25554 0.773325 3.25554C0.524289 3.25554 0.32236 3.45747 0.32236 3.70651V7.84853C0.317931 8.06637 0.46973 8.25601 0.683132 8.2995C0.713129 8.30292 0.74333 8.30292 0.773325 8.2995C0.953711 8.2999 1.11699 8.1926 1.18825 8.0267C2.02092 6.07549 3.40865 4.41213 5.17891 3.24307C6.94937 2.07417 9.02417 1.45107 11.1456 1.45168L11.1454 1.45174Z" fill="white"/>
</svg>
