<svg width="22" height="22" viewBox="0 0 22 22" fill="none" xmlns="http://www.w3.org/2000/svg">
<path d="M21.608 0.399536C21.5839 0.211524 21.436 0.0636388 21.248 0.0394874C20.9942 0.00623198 15.0056 -0.678394 8.92544 5.31445C8.0099 5.36238 3.57153 5.70571 1.36566 7.91136L0.117191 9.15983C0.0304312 9.24938 -0.0115553 9.37311 0.00275096 9.49684C0.0204003 9.62578 0.0975015 9.73892 0.210829 9.80283L3.30489 11.6567C3.46894 11.7558 3.67944 11.7299 3.8147 11.5943L5.37935 10.0274L8.20308 12.8553L6.01624 15.0421C5.85367 15.2048 5.85367 15.4685 6.01624 15.631C6.1788 15.7936 6.44243 15.7936 6.60518 15.631L8.79203 13.4442L11.6135 16.2677L10.0466 17.8324V17.8326C9.91101 17.9678 9.88519 18.1783 9.98421 18.3424L11.8445 21.4364C11.9084 21.5498 12.0215 21.6269 12.1504 21.6445H12.2025C12.3126 21.644 12.4182 21.5999 12.4958 21.5217L13.7443 20.2733C15.9499 18.0697 16.2933 13.6314 16.3412 12.7135C22.3253 6.64187 21.6428 0.653492 21.6076 0.399518L21.608 0.399536ZM3.45502 10.7806L1.0913 9.36773L1.95481 8.50627C3.49459 6.96444 6.40973 6.42548 8.00359 6.23819L3.45502 10.7806ZM12.1943 15.6789L9.37895 12.8552L11.8759 10.3582C12.0385 10.1957 12.0385 9.93205 11.8759 9.76948C11.7133 9.60673 11.4497 9.60673 11.2871 9.76948L8.7902 12.2664L5.96851 9.44473L9.39569 6.01775C14.4105 1.00294 19.4667 0.798904 20.8107 0.836477C20.8544 2.17022 20.6526 7.22674 15.638 12.2411L13.0079 14.8733L12.1943 15.6789ZM13.139 19.6948L12.2796 20.5561L10.8606 18.1924L14.6641 14.3929L15.4153 13.6418C15.2302 15.2356 14.6912 18.1508 13.1472 19.6948H13.139Z" fill="white"/>
<path d="M17.2916 6.96409C17.2903 6.15517 16.9132 5.39273 16.2709 4.90095C15.6286 4.40917 14.7941 4.24404 14.0129 4.45395C13.2316 4.66389 12.5926 5.22515 12.2832 5.97276C11.9739 6.72018 12.0298 7.56899 12.4343 8.26942C12.8387 8.96999 13.546 9.44265 14.3478 9.54857C15.1498 9.65447 15.9554 9.38136 16.5278 8.80971C17.0179 8.32074 17.2927 7.65655 17.2916 6.96412L17.2916 6.96409ZM15.9391 8.21256C15.606 8.54474 15.1545 8.73106 14.6841 8.73073C14.2137 8.73017 13.7626 8.54309 13.43 8.21018C13.0977 7.87744 12.9108 7.42619 12.9108 6.95576C12.9108 6.48534 13.0977 6.03408 13.43 5.70135C13.7626 5.36861 14.2137 5.18132 14.6841 5.18099C15.1545 5.18043 15.606 5.36677 15.9391 5.69897C16.2744 6.03301 16.4632 6.48667 16.4632 6.96009C16.4632 7.43328 16.2744 7.88715 15.9391 8.22102V8.21256Z" fill="white"/>
<path d="M7.72031 16.6692L5.95162 18.4379C5.86356 18.5133 5.81098 18.622 5.80634 18.7379C5.80188 18.8536 5.8461 18.9662 5.92803 19.0482C6.00996 19.1301 6.12254 19.1743 6.23828 19.1699C6.35421 19.1652 6.4629 19.1126 6.53833 19.0246L8.30702 17.2559C8.4484 17.0907 8.43892 16.8447 8.28528 16.6909C8.13145 16.5373 7.88547 16.5278 7.7203 16.6692L7.72031 16.6692Z" fill="white"/>
<path d="M4.39121 16.6692L2.62252 18.4379C2.53446 18.5133 2.48188 18.622 2.47724 18.7379C2.47278 18.8536 2.51699 18.9662 2.59893 19.0482C2.68086 19.1301 2.79344 19.1743 2.90918 19.1699C3.02511 19.1652 3.1338 19.1126 3.20922 19.0246L4.97791 17.2559C5.1193 17.0907 5.10982 16.8447 4.95618 16.6909C4.80235 16.5373 4.55637 16.5278 4.3912 16.6692L4.39121 16.6692Z" fill="white"/>
<path d="M4.39121 13.3401L2.62252 15.1088C2.53446 15.1842 2.48188 15.2929 2.47724 15.4088C2.47278 15.5245 2.51699 15.6371 2.59893 15.7191C2.68086 15.801 2.79344 15.8452 2.90918 15.8408C3.02511 15.8361 3.1338 15.7835 3.20922 15.6955L4.97791 13.9268C5.1193 13.7616 5.10982 13.5156 4.95618 13.3618C4.80235 13.2082 4.55637 13.1987 4.3912 13.3401L4.39121 13.3401Z" fill="white"/>
</svg>
