<svg width="149" height="34" viewBox="0 0 149 34" fill="none" xmlns="http://www.w3.org/2000/svg">
<path fill-rule="evenodd" clip-rule="evenodd" d="M4.87272 20.038L1.00626 24.4014L8.95299 31.3832C12.9401 34.8863 19.0336 34.5071 22.5518 30.5369C25.8711 26.7912 25.7198 21.1787 22.3433 17.6142L19.9163 15.4277L19.1733 14.7749L19.1814 14.7657L17.9312 13.6393L17.909 13.6643L13.755 10.0146L6.84936 17.8075L4.38108 15.6389C1.05851 12.7197 0.741019 7.66362 3.67279 4.35509C6.60456 1.04677 11.6824 0.730631 15.0052 3.64984L21.6275 9.46812L18.8362 12.6181L20.0865 13.7446L23.9543 9.37989L16.0073 2.39811C12.0201 -1.10497 5.92669 -0.725818 2.40852 3.24446C-1.10964 7.21453 -0.728629 13.2819 3.25853 16.7849L5.78703 19.0064L5.77764 19.0168L7.03659 20.1337L7.0513 20.1171L11.2053 23.7667L18.1109 15.9738L20.5792 18.1424C23.902 21.0616 24.2193 26.1177 21.2875 29.4262C18.3557 32.7345 13.2779 33.0507 9.9553 30.1315L3.33283 24.3132L6.13168 21.1549L4.87272 20.038ZM16.8467 14.8631L11.0036 21.457L8.11363 18.9182L13.957 12.3243L16.8467 14.8631Z" fill="#88E900"/>
<path d="M128.454 20.38V30.9947H122.828V4.14573H138.284V8.81027H128.454V15.7337H137.602V20.38H128.454ZM142.877 5.15573C142.877 3.33144 143.897 2.4193 145.938 2.4193C147.979 2.4193 149 3.33144 149 5.15573C149 6.02491 148.745 6.70129 148.235 7.18488C147.724 7.6686 146.959 7.91046 145.938 7.91046C143.897 7.91046 142.877 6.99222 142.877 5.15573ZM148.742 10.4631V30.9947H143.116V10.4631H148.742ZM59.917 23.8509C59.917 26.2138 59.0563 28.0564 57.335 29.3787C55.6136 30.701 53.2775 31.3621 50.3264 31.3621C47.1295 31.3621 44.6703 30.9519 42.9489 30.1315V27.1198C44.0556 27.5851 45.2605 27.9524 46.5639 28.2217C47.8672 28.491 49.1583 28.6257 50.4371 28.6257C52.5273 28.6257 54.1012 28.2309 55.1587 27.4412C56.2161 26.6515 56.7447 25.5526 56.7447 24.1447C56.7447 23.2142 56.5572 22.4521 56.1822 21.8584C55.8072 21.2646 55.1801 20.7167 54.3009 20.2147C53.4219 19.7127 52.0847 19.1433 50.2895 18.5067C47.7811 17.613 45.989 16.554 44.9131 15.3297C43.8372 14.1055 43.2993 12.5077 43.2993 10.5365C43.2993 8.46745 44.0801 6.82077 45.6416 5.59649C47.2033 4.37221 49.269 3.76007 51.8388 3.76007C54.5192 3.76007 56.9845 4.24975 59.2346 5.22912L58.2573 7.94706C56.0316 7.01662 53.8675 6.55139 51.7651 6.55139C50.1051 6.55139 48.8079 6.90643 47.8735 7.61649C46.9389 8.32669 46.4716 9.3123 46.4716 10.5733C46.4716 11.5038 46.6438 12.2659 46.9881 12.8596C47.3324 13.4534 47.9133 13.9983 48.731 14.4942C49.5487 14.99 50.7998 15.5378 52.4844 16.1377C55.3124 17.1417 57.2582 18.2191 58.3218 19.37C59.3853 20.5208 59.917 22.0144 59.917 23.8509ZM73.5101 31.3621C70.5222 31.3621 68.1644 30.4561 66.437 28.644C64.7094 26.832 63.8456 24.3161 63.8456 21.0962C63.8456 17.8518 64.6479 15.2746 66.2526 13.3646C67.8572 11.4547 70.012 10.4997 72.717 10.4997C75.2499 10.4997 77.2541 11.3292 78.7296 12.9881C80.2051 14.6471 80.9429 16.8355 80.9429 19.5535V21.4819H67.0179C67.0794 23.8448 67.6789 25.6383 68.8163 26.8626C69.9535 28.0869 71.555 28.6991 73.6207 28.6991C75.7971 28.6991 77.9489 28.2461 80.076 27.3402V30.0581C78.994 30.5234 77.9704 30.857 77.0051 31.059C76.0399 31.2611 74.8749 31.3621 73.5101 31.3621ZM72.6801 13.0526C71.057 13.0526 69.7629 13.579 68.7977 14.6318C67.8324 15.6848 67.2638 17.1417 67.0918 19.0026H77.6599C77.6599 17.0804 77.2296 15.6082 76.3689 14.5859C75.5081 13.5637 74.2785 13.0526 72.6801 13.0526ZM103.057 30.9947H99.9952V17.9743C99.9952 16.3337 99.6202 15.1093 98.8702 14.3012C98.12 13.4932 96.9458 13.0892 95.3473 13.0892C93.2325 13.0892 91.6833 13.6585 90.6997 14.7971C89.7159 15.9357 89.2241 17.815 89.2241 20.435V30.9947H86.1624V10.8671H88.6524L89.1504 13.6218H89.2978C89.9249 12.6301 90.8041 11.8618 91.9353 11.317C93.0665 10.7721 94.3268 10.4997 95.7163 10.4997C98.1509 10.4997 99.983 11.0843 101.213 12.2536C102.442 13.4228 103.057 15.293 103.057 17.8641V30.9947ZM115.875 28.846C116.416 28.846 116.939 28.8063 117.443 28.7267C117.947 28.6471 118.347 28.5645 118.642 28.4787V30.8111C118.31 30.9703 117.821 31.1019 117.175 31.206C116.53 31.3101 115.949 31.3621 115.433 31.3621C111.522 31.3621 109.567 29.3113 109.567 25.2098V13.2361H106.672V11.7669L109.567 10.4997L110.859 6.20253H112.629V10.8671H118.494V13.2361H112.629V25.0813C112.629 26.2934 112.918 27.2239 113.496 27.8728C114.074 28.5216 114.867 28.846 115.875 28.846Z" fill="#88E900"/>
</svg>
