<svg width="29" height="29" viewBox="0 0 29 29" fill="none" xmlns="http://www.w3.org/2000/svg">
<circle cx="14.408" cy="14.4081" r="14.4081" fill="#23034B"/>
<path d="M8.83841 17.6356C8.93907 17.5324 9.07748 17.4722 9.22428 17.4722H22.537C22.7802 17.4722 22.9019 17.7731 22.7299 17.9494L20.1001 20.6453C19.9994 20.7485 19.861 20.8086 19.7142 20.8086H6.40153C6.15826 20.8086 6.03662 20.5077 6.20859 20.3314L8.83841 17.6356Z" fill="url(#paint0_linear_1_278)"/>
<path d="M8.83841 6.32423C8.94327 6.20041 9.08168 6.12817 9.22428 6.12817H22.537C22.7802 6.12817 22.9019 6.48934 22.7299 6.70088L20.1001 9.93589C19.9994 10.0597 19.861 10.1319 19.7142 10.1319H6.40153C6.15826 10.1319 6.03662 9.77078 6.20859 9.55924L8.83841 6.32423Z" fill="url(#paint1_linear_1_278)"/>
<path d="M20.1001 11.6626C19.9994 11.5388 19.861 11.4666 19.7142 11.4666H6.40153C6.15826 11.4666 6.03662 11.8277 6.20859 12.0393L8.83841 15.2743C8.93907 15.3981 9.07748 15.4703 9.22428 15.4703H22.537C22.7802 15.4703 22.9019 15.1092 22.7299 14.8976L20.1001 11.6626Z" fill="url(#paint2_linear_1_278)"/>
<defs>
<linearGradient id="paint0_linear_1_278" x1="21.2652" y1="5.79642" x2="11.6877" y2="23.692" gradientUnits="userSpaceOnUse">
<stop stop-color="#00FFA3"/>
<stop offset="1" stop-color="#DC1FFF"/>
</linearGradient>
<linearGradient id="paint1_linear_1_278" x1="17.2366" y1="1.60838" x2="4.67552" y2="21.167" gradientUnits="userSpaceOnUse">
<stop stop-color="#00FFA3"/>
<stop offset="1" stop-color="#DC1FFF"/>
</linearGradient>
<linearGradient id="paint2_linear_1_278" x1="19.2381" y1="2.23167" x2="6.677" y2="21.7903" gradientUnits="userSpaceOnUse">
<stop stop-color="#00FFA3"/>
<stop offset="1" stop-color="#DC1FFF"/>
</linearGradient>
</defs>
</svg>
